<svg width="24" height="25" viewBox="0 0 24 25" fill="none" xmlns="http://www.w3.org/2000/svg">
<path d="M21.2913 5.59344C20.7805 5.08262 20.1741 4.67741 19.5066 4.40094C18.8392 4.12448 18.1238 3.98218 17.4013 3.98218C16.6788 3.98218 15.9634 4.12448 15.2959 4.40094C14.6285 4.67741 14.022 5.08262 13.5113 5.59344L12.4513 6.65307L11.3913 5.59344C10.3596 4.56211 8.96032 3.98271 7.50129 3.98271C6.04226 3.98271 4.64298 4.56211 3.61129 5.59344C2.5796 6.62477 2 8.02355 2 9.48207C2 10.9406 2.5796 12.3394 3.61129 13.3707L4.67129 14.4303L12.4513 22.2076L20.2313 14.4303L21.2913 13.3707C21.8023 12.8601 22.2076 12.2539 22.4842 11.5867C22.7608 10.9195 22.9031 10.2043 22.9031 9.48207C22.9031 8.75984 22.7608 8.04468 22.4842 7.37746C22.2076 6.71023 21.8023 6.10401 21.2913 5.59344V5.59344Z" stroke="#404446" stroke-width="1.5" stroke-linecap="round" stroke-linejoin="round"/>
</svg>
