<svg width="24" height="24" viewBox="0 0 24 24" fill="none" xmlns="http://www.w3.org/2000/svg">
<path d="M18 7.99976C18 6.40846 17.3679 4.88233 16.2426 3.75712C15.1174 2.6319 13.5913 1.99976 12 1.99976C10.4087 1.99976 8.88258 2.6319 7.75736 3.75712C6.63214 4.88233 6 6.40846 6 7.99976C6 14.9998 3 16.9998 3 16.9998H21C21 16.9998 18 14.9998 18 7.99976Z" fill="#F7F9FA" stroke="#F7F9FA" stroke-width="1.5" stroke-linecap="round" stroke-linejoin="round"/>
<path d="M13.73 21C13.5542 21.3031 13.3019 21.5547 12.9982 21.7295C12.6946 21.9044 12.3504 21.9965 12 21.9965C11.6496 21.9965 11.3054 21.9044 11.0018 21.7295C10.6982 21.5547 10.4458 21.3031 10.27 21" fill="#F7F9FA"/>
<path d="M13.73 21C13.5542 21.3031 13.3019 21.5547 12.9982 21.7295C12.6946 21.9044 12.3504 21.9965 12 21.9965C11.6496 21.9965 11.3054 21.9044 11.0018 21.7295C10.6982 21.5547 10.4458 21.3031 10.27 21" stroke="#F7F9FA" stroke-width="1.5" stroke-linecap="round" stroke-linejoin="round"/>
</svg>
