<svg width="32" height="32" viewBox="0 0 32 32" fill="none" xmlns="http://www.w3.org/2000/svg">
<path d="M0 16C0 7.16344 7.16344 0 16 0V0C24.8366 0 32 7.16344 32 16V16C32 24.8366 24.8366 32 16 32V32C7.16344 32 0 24.8366 0 16V16Z" fill="#2873F0"/>
<path d="M22 15.6666C22.0023 16.5465 21.7967 17.4145 21.4 18.2C20.9296 19.1411 20.2065 19.9327 19.3116 20.4861C18.4168 21.0396 17.3855 21.3329 16.3333 21.3333C15.4534 21.3356 14.5854 21.13 13.8 20.7333L10 22L11.2667 18.2C10.87 17.4145 10.6644 16.5465 10.6667 15.6666C10.6671 14.6145 10.9604 13.5832 11.5138 12.6883C12.0672 11.7935 12.8588 11.0703 13.8 10.6C14.5854 10.2032 15.4534 9.99766 16.3333 9.99996H16.6667C18.0562 10.0766 19.3687 10.6631 20.3528 11.6472C21.3368 12.6313 21.9233 13.9437 22 15.3333V15.6666Z" stroke="white" stroke-width="1.5" stroke-linecap="round" stroke-linejoin="round"/>
</svg>
