<svg width="24" height="25" viewBox="0 0 24 25" fill="none" xmlns="http://www.w3.org/2000/svg">
<g clip-path="url(#clip0)">
<ellipse cx="12" cy="12.9963" rx="3" ry="2.99895" stroke="#404446" stroke-width="1.5" stroke-linecap="round" stroke-linejoin="round"/>
<path fill-rule="evenodd" clip-rule="evenodd" d="M19.4 15.9951C19.1277 16.612 19.2583 17.3324 19.73 17.8145L19.79 17.8744C20.1656 18.2494 20.3766 18.7583 20.3766 19.2889C20.3766 19.8196 20.1656 20.3284 19.79 20.7034C19.4149 21.0789 18.9058 21.2898 18.375 21.2898C17.8442 21.2898 17.3351 21.0789 16.96 20.7034L16.9 20.6435C16.4178 20.172 15.6971 20.0413 15.08 20.3136C14.4755 20.5726 14.0826 21.1656 14.08 21.823V21.993C14.08 23.0972 13.1846 23.9923 12.08 23.9923C10.9754 23.9923 10.08 23.0972 10.08 21.993V21.903C10.0642 21.2259 9.63587 20.6273 9 20.3935C8.38291 20.1213 7.66219 20.2519 7.18 20.7234L7.12 20.7834C6.74486 21.1588 6.23582 21.3698 5.705 21.3698C5.17418 21.3698 4.66514 21.1588 4.29 20.7834C3.91445 20.4084 3.70343 19.8995 3.70343 19.3689C3.70343 18.8383 3.91445 18.3294 4.29 17.9544L4.35 17.8944C4.82167 17.4124 4.95235 16.6919 4.68 16.0751C4.42093 15.4708 3.82764 15.078 3.17 15.0754H3C1.89543 15.0754 1 14.1803 1 13.0761C1 11.9719 1.89543 11.0768 3 11.0768H3.09C3.76733 11.061 4.36613 10.6328 4.6 9.99719C4.87235 9.38032 4.74167 8.65985 4.27 8.17783L4.21 8.11785C3.83445 7.74285 3.62343 7.23398 3.62343 6.70335C3.62343 6.17272 3.83445 5.66385 4.21 5.28885C4.58514 4.91342 5.09418 4.70248 5.625 4.70248C6.15582 4.70248 6.66486 4.91342 7.04 5.28885L7.1 5.34882C7.58219 5.82033 8.30291 5.95096 8.92 5.67871H9C9.60447 5.41973 9.99738 4.82665 10 4.16924V3.9993C10 2.89512 10.8954 2 12 2C13.1046 2 14 2.89512 14 3.9993V4.08927C14.0026 4.74668 14.3955 5.33976 15 5.59874C15.6171 5.87099 16.3378 5.74035 16.82 5.26885L16.88 5.20887C17.2551 4.83345 17.7642 4.62251 18.295 4.62251C18.8258 4.62251 19.3349 4.83345 19.71 5.20887C20.0856 5.58388 20.2966 6.09275 20.2966 6.62338C20.2966 7.15401 20.0856 7.66288 19.71 8.03788L19.65 8.09786C19.1783 8.57988 19.0477 9.30035 19.32 9.91722V9.99719C19.5791 10.6015 20.1724 10.9942 20.83 10.9968H21C22.1046 10.9968 23 11.892 23 12.9961C23 14.1003 22.1046 14.9954 21 14.9954H20.91C20.2524 14.9981 19.6591 15.3908 19.4 15.9951Z" stroke="#404446" stroke-width="1.5" stroke-linecap="round" stroke-linejoin="round"/>
</g>
<defs>
<clipPath id="clip0">
<rect width="24" height="23.9916" fill="white" transform="translate(0 0.974609)"/>
</clipPath>
</defs>
</svg>
