<svg width="99" height="34" viewBox="0 0 99 34" fill="none" xmlns="http://www.w3.org/2000/svg">
<path d="M12.9074 18.28C9.01075 18.28 5.85182 15.3877 5.85182 11.821C5.85182 8.25316 9.01075 5.36079 12.9074 5.36079C16.8028 5.36079 19.9617 8.25316 19.9617 11.821C19.9617 15.3877 16.8028 18.28 12.9074 18.28ZM12.9074 0.00276217C5.77845 0.00276217 0 5.29362 0 11.821C0 18.3472 5.77845 23.6379 12.9074 23.6379C20.0351 23.6379 25.8135 18.3472 25.8135 11.821C25.8135 5.29362 20.0351 0.00276217 12.9074 0.00276217Z" fill="white"/>
<path d="M52.888 11.8219C52.888 13.841 52.3351 15.7418 51.3594 17.4039C51.293 17.5196 51.2222 17.6328 51.1516 17.7447L51.1475 17.7522C51.0783 17.8604 51.0062 17.9699 50.9316 18.0794C50.8188 18.2448 50.7005 18.409 50.5768 18.5695C50.5483 18.6081 50.5186 18.6454 50.4887 18.684C50.4722 18.7051 50.4561 18.7275 50.4369 18.7487C50.3853 18.8146 50.3323 18.8805 50.2779 18.9452C50.2779 18.9477 50.2766 18.949 50.274 18.9502C50.2509 18.9801 50.2263 19.0099 50.1991 19.0385C49.8568 19.4453 49.4845 19.8322 49.0852 20.1942C49.0186 20.2564 48.9506 20.3161 48.8827 20.3759C48.5334 20.6806 48.1666 20.9668 47.7835 21.233C47.6951 21.2952 47.6068 21.3549 47.5171 21.4134C47.3147 21.5477 47.1068 21.6759 46.8962 21.799L46.6788 21.9247C46.5633 21.9881 46.4466 22.0503 46.3296 22.1113C46.0512 22.2568 45.7644 22.3924 45.4724 22.5168C43.8052 23.2359 41.9438 23.6377 39.9805 23.6377C32.8529 23.6377 27.0746 18.3468 27.0746 11.8219C27.0746 5.29325 32.8529 0.00363751 39.9805 0.00363751C41.8271 0.00363751 43.5837 0.358186 45.172 0.99886C43.4127 2.02394 41.9098 3.4073 40.8012 5.02951C40.721 5.14521 40.6436 5.26339 40.5675 5.38282C40.3732 5.36789 40.1775 5.36043 39.9805 5.36043C36.0838 5.36043 32.9263 8.25279 32.9263 11.8219C32.9263 15.3873 36.0838 18.2797 39.9805 18.2797C40.1721 18.2797 40.361 18.2722 40.5486 18.2585C40.6558 18.2511 40.7618 18.2411 40.8664 18.2287C40.9955 18.215 41.1232 18.1963 41.2497 18.1752C41.2903 18.1689 41.331 18.1615 41.3718 18.1528C41.4506 18.1391 41.5323 18.1229 41.6272 18.1018C41.6599 18.0955 41.6926 18.0881 41.7252 18.0806C41.9139 18.0371 42.1002 17.9861 42.2835 17.9276C42.3433 17.9089 42.4045 17.889 42.4642 17.8679C42.6626 17.7995 42.8583 17.7236 43.0484 17.639C43.1477 17.5954 43.2468 17.5494 43.3433 17.5009C43.456 17.4449 43.5688 17.3852 43.6788 17.323C43.7536 17.2807 43.8271 17.2384 43.8991 17.1936C44.2604 16.9709 44.6 16.7184 44.9098 16.441C44.9737 16.3863 45.0348 16.329 45.0932 16.2718V16.2706C45.1544 16.2133 45.2129 16.1549 45.27 16.0951C45.35 16.0118 45.429 15.926 45.5049 15.8389C45.8228 15.4731 46.0986 15.0738 46.3269 14.6446C46.4765 14.3635 46.6056 14.0674 46.7088 13.7688C46.7223 13.7253 46.7372 13.6817 46.7508 13.6382C46.7726 13.571 46.7929 13.5038 46.812 13.4354C46.8174 13.4155 46.8228 13.3944 46.8283 13.3732C46.9628 12.8768 47.0349 12.3568 47.0349 11.8219C47.0349 11.3654 46.9831 10.9187 46.8826 10.4883V10.4871C46.8473 10.3241 46.8024 10.1624 46.7523 10.0044C47.4383 8.10973 49.1762 6.6567 51.3567 6.23249C51.4017 6.30838 51.445 6.38551 51.4872 6.46264C52.3825 8.06992 52.888 9.89118 52.888 11.8219Z" fill="#F8D009"/>
<path d="M65.2315 14.5526C65.2315 14.5552 65.2315 14.5576 65.2301 14.5588H65.2315V23.6416H52.377V23.6315C50.6366 23.5967 48.9831 23.2459 47.479 22.6388C49.2399 21.6151 50.7438 20.2305 51.8525 18.6069C51.9326 18.49 52.0101 18.3718 52.0849 18.255C52.2072 18.2635 52.3293 18.2698 52.453 18.2735C52.525 18.2761 52.5985 18.2772 52.6719 18.2772C52.7452 18.2772 52.8186 18.2761 52.8906 18.2735H59.3688V14.5588H58.1295C57.3211 14.5588 56.5876 14.2578 56.0576 13.7726C55.5278 13.2874 55.199 12.6157 55.199 11.8755C55.199 10.3938 56.5115 9.1921 58.1295 9.1921H65.2315V14.5526Z" fill="#F8D009"/>
<path d="M65.2314 -7.15442e-06V5.36672H53.0345C52.915 5.3605 52.7941 5.35802 52.6718 5.35802C52.5726 5.35802 52.4747 5.35926 52.377 5.36424C52.2817 5.36797 52.1868 5.37294 52.0915 5.38041C51.9857 5.38787 51.8811 5.39907 51.7777 5.41027C51.4884 5.44386 51.2058 5.49362 50.9285 5.5583C48.9001 6.02979 47.222 7.30616 46.3254 8.99555C46.1529 9.32024 46.0089 9.65862 45.8973 10.0107C45.8485 10.1662 45.8051 10.3254 45.7684 10.4859C45.6692 10.9151 45.6176 11.3617 45.6176 11.8182C45.6176 12.2748 45.6692 12.7214 45.7684 13.1506C45.7506 13.2215 45.7303 13.2924 45.7072 13.3621C45.6147 13.6507 45.4953 13.9356 45.3499 14.208C44.5767 15.661 43.1582 16.7196 41.4585 17.1153C41.3608 17.1377 41.263 17.1589 41.165 17.1761C40.271 15.5689 39.7657 13.7477 39.7657 11.8182C39.7657 9.89125 40.2697 8.06999 41.1637 6.46271C41.2059 6.38558 41.2494 6.3097 41.2943 6.23381C41.4288 6.00367 41.5713 5.7785 41.7222 5.5583C42.8634 3.88882 44.4464 2.49924 46.3227 1.52641C46.5984 1.38335 46.881 1.25024 47.1705 1.12459C47.2791 1.07856 47.3879 1.03254 47.4966 0.990239C48.9966 0.38813 50.6447 0.0398016 52.377 0.00372477C52.4747 0.00123672 52.5726 -7.15442e-06 52.6718 -7.15442e-06H65.2314Z" fill="#F8D009"/>
<path d="M70.3147 0.0892504H70.3146C68.437 0.0892504 66.9149 1.48294 66.9149 3.20218V23.5518H73.7144V3.20218C73.7144 1.48294 72.1923 0.0892504 70.3147 0.0892504Z" fill="white"/>
<path d="M65.2314 11.8031V11.808H65.2301C65.2314 11.8071 65.2314 11.8051 65.2314 11.8031Z" fill="#2C77BC"/>
<path d="M65.2314 11.8031V11.808H65.2301C65.2314 11.8071 65.2314 11.8051 65.2314 11.8031Z" fill="#2C77BC"/>
<path d="M97.5601 5.30296V0.0893616H82.0383H75.8011H75.2388V23.5518H75.8011H82.0383H97.5601V18.3382H82.0383V14.4131H91.3034C92.8756 14.4131 94.1503 13.246 94.1503 11.8063C94.1503 10.3667 92.8756 9.19951 91.3034 9.19951H82.0383V5.30296H97.5601Z" fill="white"/>
<path d="M5.45679 29.8515C5.34714 29.5332 5.19375 29.2597 4.9966 29.0303C4.79946 28.8011 4.56305 28.6219 4.28778 28.493C4.0121 28.364 3.70545 28.2994 3.36741 28.2994C3.02937 28.2994 2.72258 28.364 2.44718 28.493C2.1715 28.6219 1.93537 28.8011 1.73809 29.0303C1.54094 29.2597 1.38741 29.5332 1.27804 29.8515C1.16839 30.1697 1.11364 30.5178 1.11364 30.8961C1.11364 31.2744 1.16839 31.6226 1.27804 31.9408C1.38741 32.259 1.54094 32.5312 1.73809 32.7575C1.93537 32.9842 2.1715 33.1617 2.44718 33.2907C2.72258 33.4197 3.02937 33.4842 3.36741 33.4842C3.70545 33.4842 4.0121 33.4197 4.28778 33.2907C4.56305 33.1617 4.79946 32.9842 4.9966 32.7575C5.19375 32.5312 5.34714 32.259 5.45679 31.9408C5.56629 31.6226 5.62105 31.2744 5.62105 30.8961C5.62105 30.5178 5.56629 30.1697 5.45679 29.8515ZM6.0671 32.1815C5.93246 32.5628 5.74156 32.888 5.49428 33.1574C5.24701 33.4269 4.94348 33.6346 4.58343 33.7809C4.22338 33.927 3.81808 34.0001 3.36741 34.0001C2.91674 34.0001 2.51117 33.927 2.15126 33.7809C1.79121 33.6346 1.48768 33.4269 1.2404 33.1574C0.992987 32.888 0.802093 32.5628 0.667584 32.1815C0.532939 31.8004 0.46582 31.372 0.46582 30.8961C0.46582 30.4204 0.532939 29.9904 0.667584 29.6064C0.802093 29.2224 0.992987 28.8957 1.2404 28.6262C1.48768 28.3568 1.79121 28.149 2.15126 28.003C2.51117 27.8567 2.91674 27.7836 3.36741 27.7836C3.81808 27.7836 4.22338 27.8567 4.58343 28.003C4.94348 28.149 5.24701 28.3568 5.49428 28.6262C5.74156 28.8957 5.93246 29.2224 6.0671 29.6064C6.20161 29.9904 6.26914 30.4204 6.26914 30.8961C6.26914 31.372 6.20161 31.8004 6.0671 32.1815Z" fill="white"/>
<path d="M14.8047 31.9666C14.9299 32.2848 15.1082 32.557 15.3399 32.7834C15.5716 33.0099 15.8517 33.1832 16.1804 33.3037C16.509 33.424 16.88 33.4842 17.2931 33.4842C17.6185 33.4842 17.9003 33.4626 18.1382 33.4197C18.3761 33.3767 18.5609 33.318 18.6923 33.2434V31.1713H16.7486V30.6554H19.3403V33.5787C19.0586 33.7107 18.7518 33.814 18.42 33.8882C18.0881 33.9627 17.7251 34.0001 17.3308 34.0001C16.8111 34.0001 16.3448 33.9284 15.9315 33.7851C15.5183 33.6419 15.1661 33.4356 14.8751 33.1661C14.5839 32.8967 14.3602 32.5714 14.2036 32.1901C14.0471 31.8089 13.969 31.3776 13.969 30.8962C13.969 30.4318 14.0471 30.0077 14.2036 29.6236C14.3602 29.2397 14.5808 28.9114 14.8657 28.6392C15.1505 28.3668 15.4949 28.1562 15.8987 28.0072C16.3024 27.8583 16.7486 27.7836 17.2367 27.7836C17.6313 27.7836 17.9835 27.8123 18.2933 27.8696C18.6032 27.927 18.8613 28.0043 19.068 28.1017L18.9646 28.6262C18.7329 28.5059 18.4702 28.4213 18.1759 28.3726C17.8816 28.3239 17.5843 28.2994 17.2838 28.2994C16.8706 28.2994 16.4997 28.3612 16.171 28.4844C15.8423 28.6077 15.5637 28.7811 15.3351 29.0045C15.1066 29.2281 14.9299 29.5004 14.8047 29.8214C14.6793 30.1424 14.6168 30.5006 14.6168 30.8962C14.6168 31.2917 14.6793 31.6485 14.8047 31.9666Z" fill="white"/>
<path d="M39.5352 33.0155C39.4255 33.2132 39.2769 33.3853 39.0891 33.5313C38.9012 33.6775 38.6806 33.7923 38.4271 33.8753C38.1735 33.9583 37.8996 33.9999 37.6055 33.9999C36.9918 33.9999 36.4816 33.9024 36.0746 33.7076L36.1405 33.1059C36.1842 33.1459 36.2545 33.189 36.3517 33.2347C36.4487 33.2808 36.5598 33.3222 36.6851 33.3595C36.8102 33.3967 36.9495 33.4269 37.103 33.4497C37.2564 33.4727 37.4176 33.4842 37.5866 33.4842C37.7993 33.4842 37.9966 33.4554 38.1783 33.3981C38.3598 33.3409 38.5163 33.262 38.6477 33.1617C38.7792 33.0614 38.881 32.941 38.953 32.8004C39.0247 32.6602 39.061 32.5069 39.061 32.3405C39.061 32.2031 39.0375 32.0783 38.9905 31.9664C38.9436 31.8547 38.87 31.7502 38.7699 31.6527C38.6696 31.5553 38.5413 31.4608 38.3848 31.3689C38.2283 31.2773 38.0404 31.1828 37.8214 31.0852C37.6021 30.9878 37.3878 30.8819 37.178 30.7671C36.9682 30.6525 36.7806 30.525 36.6147 30.3845C36.4487 30.2441 36.3142 30.0836 36.2109 29.903C36.1075 29.7223 36.056 29.5203 36.056 29.2968C36.056 29.0848 36.1075 28.8856 36.2109 28.6993C36.3142 28.5131 36.4566 28.3525 36.6382 28.2178C36.8197 28.0832 37.034 27.977 37.2814 27.8996C37.5286 27.8222 37.7932 27.7835 38.0749 27.7835C38.6133 27.7835 39.061 27.8639 39.4178 28.0242L39.3052 28.5401C39.1924 28.4829 39.0436 28.4284 38.859 28.3768C38.6743 28.3253 38.4098 28.2994 38.0655 28.2994C37.6647 28.2994 37.3378 28.3941 37.0843 28.5832C36.8307 28.7724 36.7038 29.0217 36.7038 29.3312C36.7038 29.5606 36.8321 29.777 37.0889 29.9805C37.3456 30.1839 37.7336 30.4032 38.2533 30.6382C38.7416 30.856 39.1046 31.0939 39.3427 31.3518C39.5804 31.6097 39.6995 31.9508 39.6995 32.375C39.6995 32.6043 39.6447 32.8177 39.5352 33.0155Z" fill="white"/>
<path d="M47.9916 27.8868V30.5436H51.3065V27.8868H51.9544V33.897H51.3065V31.0596H47.9916V33.897H47.3436V27.8868H47.9916Z" fill="white"/>
<path d="M64.5981 29.8515C64.4885 29.5332 64.3351 29.2597 64.138 29.0303C63.9408 28.8011 63.7044 28.6219 63.4291 28.493C63.1535 28.364 62.8468 28.2994 62.5088 28.2994C62.1707 28.2994 61.8639 28.364 61.5885 28.493C61.3129 28.6219 61.0767 28.8011 60.8794 29.0303C60.6823 29.2597 60.5288 29.5332 60.4194 29.8515C60.3098 30.1697 60.255 30.5178 60.255 30.8961C60.255 31.2744 60.3098 31.6226 60.4194 31.9408C60.5288 32.259 60.6823 32.5312 60.8794 32.7575C61.0767 32.9842 61.3129 33.1617 61.5885 33.2907C61.8639 33.4197 62.1707 33.4842 62.5088 33.4842C62.8468 33.4842 63.1535 33.4197 63.4291 33.2907C63.7044 33.1617 63.9408 32.9842 64.138 32.7575C64.3351 32.5312 64.4885 32.259 64.5981 31.9408C64.7077 31.6226 64.7624 31.2744 64.7624 30.8961C64.7624 30.5178 64.7077 30.1697 64.5981 29.8515ZM65.2085 32.1815C65.0738 32.5628 64.8829 32.888 64.6356 33.1574C64.3884 33.4269 64.0848 33.6346 63.7248 33.7809C63.3647 33.927 62.9594 34.0001 62.5088 34.0001C62.0581 34.0001 61.6525 33.927 61.2926 33.7809C60.9326 33.6346 60.629 33.4269 60.3818 33.1574C60.1343 32.888 59.9435 32.5628 59.8089 32.1815C59.6743 31.8004 59.6072 31.372 59.6072 30.8961C59.6072 30.4204 59.6743 29.9904 59.8089 29.6064C59.9435 29.2224 60.1343 28.8957 60.3818 28.6262C60.629 28.3568 60.9326 28.149 61.2926 28.003C61.6525 27.8567 62.0581 27.7836 62.5088 27.7836C62.9594 27.7836 63.3647 27.8567 63.7248 28.003C64.0848 28.149 64.3884 28.3568 64.6356 28.6262C64.8829 28.8957 65.0738 29.2224 65.2085 29.6064C65.343 29.9904 65.4105 30.4204 65.4105 30.8961C65.4105 31.372 65.343 31.8004 65.2085 32.1815Z" fill="white"/>
<path d="M74.3691 30.7758C74.9513 30.7758 75.3834 30.6799 75.665 30.4878C75.9467 30.2959 76.0876 29.9849 76.0876 29.5549C76.0876 29.1766 75.9717 28.89 75.7402 28.6951C75.5085 28.5002 75.1767 28.4028 74.7448 28.4028H73.7118V30.7758V31.3003V33.897H73.064V27.8868H74.726C75.3518 27.8868 75.8419 28.0373 76.1956 28.3383C76.5492 28.6392 76.7263 29.0648 76.7263 29.6151C76.7263 29.8673 76.676 30.0966 76.5759 30.303C76.4757 30.5092 76.3348 30.6855 76.1533 30.8317C75.9717 30.9779 75.7541 31.0911 75.5008 31.1714C75.2472 31.2517 74.9669 31.2947 74.6603 31.3003L74.125 31.3089V30.7758H74.3691Z" fill="white"/>
<path d="M84.4073 33.8969V27.8867H87.0649V28.4027H85.0553V30.5436H87.4967V31.0595H85.0553V33.3811H87.7409V33.8969H84.4073Z" fill="white"/>
<path d="M95.376 33.8969V27.8867H98.0336V28.4027H96.0239V30.5436H98.4653V31.0595H96.0239V33.3811H98.7095V33.8969H95.376Z" fill="white"/>
</svg>
