<svg width="1294" height="418" viewBox="0 0 1294 418" fill="none" xmlns="http://www.w3.org/2000/svg">
<rect x="249" width="315" height="418" rx="39" fill="#2873F0"/>
<rect width="511" height="418" rx="202.5" fill="#2873F0"/>
<path d="M352.429 213.789C352.429 239.713 345.909 264.119 334.402 285.459C333.619 286.944 332.784 288.398 331.951 289.835L331.903 289.931C331.087 291.321 330.236 292.726 329.356 294.132C328.026 296.256 326.631 298.365 325.173 300.425C324.836 300.921 324.485 301.4 324.133 301.895C323.939 302.166 323.748 302.454 323.522 302.725C322.913 303.572 322.288 304.419 321.647 305.249C321.647 305.281 321.631 305.297 321.601 305.313C321.329 305.696 321.039 306.08 320.718 306.447C316.68 311.67 312.29 316.638 307.58 321.286C306.795 322.084 305.994 322.851 305.193 323.618C301.073 327.531 296.747 331.205 292.23 334.623C291.187 335.422 290.145 336.188 289.088 336.939C286.7 338.664 284.249 340.309 281.765 341.891L279.201 343.504C277.839 344.319 276.463 345.117 275.083 345.9C271.8 347.769 268.417 349.51 264.974 351.107C245.312 360.339 223.359 365.499 200.205 365.499C116.146 365.499 48 297.566 48 213.789C48 129.963 116.146 62.0471 200.205 62.0471C221.983 62.0471 242.7 66.5993 261.431 74.8253C240.682 87.9869 222.959 105.749 209.884 126.577C208.938 128.063 208.025 129.58 207.128 131.114C204.836 130.922 202.529 130.826 200.205 130.826C154.25 130.826 117.012 167.963 117.012 213.789C117.012 259.567 154.25 296.704 200.205 296.704C202.465 296.704 204.692 296.608 206.905 296.432C208.169 296.336 209.419 296.209 210.653 296.049C212.175 295.873 213.681 295.633 215.173 295.362C215.652 295.282 216.133 295.186 216.614 295.074C217.543 294.899 218.506 294.691 219.626 294.42C220.011 294.34 220.397 294.244 220.781 294.148C223.007 293.589 225.204 292.934 227.365 292.183C228.07 291.944 228.793 291.688 229.496 291.417C231.836 290.538 234.145 289.564 236.387 288.478C237.558 287.919 238.726 287.328 239.864 286.705C241.194 285.986 242.524 285.219 243.821 284.421C244.703 283.878 245.57 283.334 246.419 282.759C250.679 279.9 254.685 276.658 258.339 273.096C259.092 272.393 259.813 271.658 260.502 270.924V270.908C261.223 270.173 261.914 269.422 262.587 268.655C263.53 267.585 264.461 266.483 265.357 265.365C269.106 260.669 272.359 255.542 275.051 250.031C276.815 246.421 278.338 242.62 279.555 238.786C279.714 238.227 279.89 237.668 280.051 237.109C280.307 236.247 280.547 235.384 280.772 234.506C280.836 234.25 280.9 233.978 280.964 233.707C282.55 227.334 283.401 220.657 283.401 213.789C283.401 207.927 282.791 202.193 281.605 196.666V196.65C281.188 194.558 280.659 192.481 280.068 190.453C288.158 166.126 308.654 147.47 334.37 142.023C334.901 142.997 335.412 143.988 335.908 144.978C346.468 165.615 352.429 188.999 352.429 213.789Z" fill="#F8D009"/>
<path d="M498 248.85C498 248.883 498 248.914 497.984 248.93H498V365.549H346.401V365.419C325.875 364.972 306.375 360.468 288.637 352.673C309.403 339.529 327.14 321.751 340.215 300.905C341.16 299.404 342.073 297.886 342.956 296.386C344.398 296.497 345.839 296.577 347.297 296.624C348.146 296.658 349.013 296.672 349.879 296.672C350.744 296.672 351.609 296.658 352.458 296.624H428.858V248.93H414.243C404.709 248.93 396.058 245.064 389.807 238.835C383.56 232.605 379.682 223.98 379.682 214.476C379.682 195.453 395.161 180.023 414.243 180.023H498V248.85Z" fill="white"/>
<path d="M498 62V130.907H354.156C352.747 130.827 351.321 130.795 349.879 130.795C348.709 130.795 347.554 130.811 346.402 130.875C345.279 130.923 344.159 130.986 343.035 131.082C341.787 131.178 340.553 131.322 339.334 131.466C335.922 131.897 332.59 132.536 329.319 133.366C305.398 139.42 285.607 155.808 275.033 177.499C272.998 181.668 271.3 186.013 269.984 190.533C269.409 192.53 268.896 194.574 268.464 196.635C267.294 202.145 266.685 207.88 266.685 213.742C266.685 219.604 267.294 225.338 268.464 230.848C268.254 231.759 268.015 232.669 267.743 233.564C266.651 237.269 265.243 240.927 263.528 244.425C254.409 263.081 237.681 276.673 217.636 281.754C216.483 282.041 215.33 282.313 214.174 282.535C203.631 261.898 197.672 238.515 197.672 213.742C197.672 189 203.615 165.615 214.158 144.979C214.657 143.988 215.17 143.014 215.698 142.04C217.285 139.085 218.965 136.194 220.746 133.366C234.204 111.931 252.873 94.0894 275.001 81.5986C278.252 79.7617 281.585 78.0526 285 76.4394C286.28 75.8484 287.564 75.2574 288.845 74.7144C306.535 66.9835 325.972 62.5111 346.402 62.0479C347.554 62.016 348.709 62 349.879 62H498Z" fill="white"/>
<rect x="498" y="184" width="796" height="234" rx="39" fill="#2873F0"/>
<path d="M620.043 335.895H564.965L553.441 369H527.758L581.469 226.812H603.637L657.445 369H631.664L620.043 335.895ZM571.898 315.973H613.109L592.504 256.988L571.898 315.973ZM730.59 340.289C730.59 336.057 728.832 332.835 725.316 330.621C721.866 328.408 716.104 326.454 708.031 324.762C699.958 323.069 693.22 320.921 687.816 318.316C675.967 312.587 670.043 304.286 670.043 293.414C670.043 284.299 673.884 276.682 681.566 270.562C689.249 264.443 699.014 261.383 710.863 261.383C723.493 261.383 733.682 264.508 741.43 270.758C749.242 277.008 753.148 285.113 753.148 295.074H729.418C729.418 290.517 727.725 286.741 724.34 283.746C720.954 280.686 716.462 279.156 710.863 279.156C705.655 279.156 701.391 280.361 698.07 282.77C694.815 285.178 693.188 288.401 693.188 292.438C693.188 296.083 694.717 298.915 697.777 300.934C700.837 302.952 707.022 305.003 716.332 307.086C725.642 309.104 732.934 311.546 738.207 314.41C743.546 317.21 747.484 320.595 750.023 324.566C752.628 328.538 753.93 333.355 753.93 339.02C753.93 348.525 749.991 356.24 742.113 362.164C734.236 368.023 723.917 370.953 711.156 370.953C702.497 370.953 694.783 369.391 688.012 366.266C681.241 363.141 675.967 358.844 672.191 353.375C668.415 347.906 666.527 342.014 666.527 335.699H689.574C689.9 341.298 692.016 345.628 695.922 348.688C699.828 351.682 705.004 353.18 711.449 353.18C717.699 353.18 722.452 352.008 725.707 349.664C728.962 347.255 730.59 344.13 730.59 340.289ZM833.91 340.289C833.91 336.057 832.152 332.835 828.637 330.621C825.186 328.408 819.424 326.454 811.352 324.762C803.279 323.069 796.54 320.921 791.137 318.316C779.288 312.587 773.363 304.286 773.363 293.414C773.363 284.299 777.204 276.682 784.887 270.562C792.569 264.443 802.335 261.383 814.184 261.383C826.814 261.383 837.003 264.508 844.75 270.758C852.562 277.008 856.469 285.113 856.469 295.074H832.738C832.738 290.517 831.046 286.741 827.66 283.746C824.275 280.686 819.783 279.156 814.184 279.156C808.975 279.156 804.711 280.361 801.391 282.77C798.135 285.178 796.508 288.401 796.508 292.438C796.508 296.083 798.038 298.915 801.098 300.934C804.158 302.952 810.342 305.003 819.652 307.086C828.962 309.104 836.254 311.546 841.527 314.41C846.866 317.21 850.805 320.595 853.344 324.566C855.948 328.538 857.25 333.355 857.25 339.02C857.25 348.525 853.311 356.24 845.434 362.164C837.556 368.023 827.237 370.953 814.477 370.953C805.818 370.953 798.103 369.391 791.332 366.266C784.561 363.141 779.288 358.844 775.512 353.375C771.736 347.906 769.848 342.014 769.848 335.699H792.895C793.22 341.298 795.336 345.628 799.242 348.688C803.148 351.682 808.324 353.18 814.77 353.18C821.02 353.18 825.772 352.008 829.027 349.664C832.283 347.255 833.91 344.13 833.91 340.289ZM942.016 358.648C935.049 366.852 925.154 370.953 912.328 370.953C900.87 370.953 892.178 367.6 886.254 360.895C880.395 354.189 877.465 344.488 877.465 331.793V263.336H901.195V331.5C901.195 344.911 906.762 351.617 917.895 351.617C929.418 351.617 937.198 347.483 941.234 339.215V263.336H964.965V369H942.602L942.016 358.648ZM1044.46 285.016C1041.33 284.495 1038.11 284.234 1034.79 284.234C1023.92 284.234 1016.59 288.401 1012.82 296.734V369H989.086V263.336H1011.74L1012.33 275.152C1018.06 265.973 1026 261.383 1036.16 261.383C1039.54 261.383 1042.34 261.839 1044.55 262.75L1044.46 285.016ZM1104.03 370.953C1088.99 370.953 1076.78 366.233 1067.41 356.793C1058.1 347.288 1053.44 334.658 1053.44 318.902V315.973C1053.44 305.426 1055.46 296.018 1059.5 287.75C1063.6 279.417 1069.33 272.939 1076.68 268.316C1084.04 263.694 1092.24 261.383 1101.29 261.383C1115.68 261.383 1126.78 265.973 1134.59 275.152C1142.47 284.332 1146.41 297.32 1146.41 314.117V323.688H1077.37C1078.08 332.411 1080.98 339.312 1086.06 344.391C1091.2 349.469 1097.65 352.008 1105.39 352.008C1116.27 352.008 1125.12 347.613 1131.96 338.824L1144.75 351.031C1140.52 357.346 1134.85 362.262 1127.76 365.777C1120.73 369.228 1112.82 370.953 1104.03 370.953ZM1101.2 280.426C1094.68 280.426 1089.41 282.704 1085.38 287.262C1081.4 291.819 1078.86 298.167 1077.76 306.305H1122.97V304.547C1122.45 296.604 1120.34 290.615 1116.62 286.578C1112.91 282.477 1107.77 280.426 1101.2 280.426ZM1160.47 315.387C1160.47 299.111 1164.25 286.057 1171.8 276.227C1179.35 266.331 1189.48 261.383 1202.17 261.383C1213.37 261.383 1222.42 265.289 1229.32 273.102V219H1253.05V369H1231.57L1230.39 358.062C1223.3 366.656 1213.83 370.953 1201.98 370.953C1189.61 370.953 1179.58 365.973 1171.9 356.012C1164.28 346.051 1160.47 332.509 1160.47 315.387ZM1184.2 317.438C1184.2 328.18 1186.25 336.578 1190.36 342.633C1194.52 348.622 1200.41 351.617 1208.03 351.617C1217.73 351.617 1224.83 347.288 1229.32 338.629V293.512C1224.96 285.048 1217.93 280.816 1208.23 280.816C1200.54 280.816 1194.62 283.876 1190.45 289.996C1186.29 296.051 1184.2 305.198 1184.2 317.438Z" fill="white"/>
</svg>
