<svg width="20" height="20" viewBox="0 0 20 20" fill="none" xmlns="http://www.w3.org/2000/svg">
<g clip-path="url(#clip0)">
<path d="M4.96152 11.9005L4.29319 14.3955L1.85048 14.4472C1.12047 13.0931 0.70639 11.544 0.70639 9.89774C0.70639 8.30582 1.09354 6.80463 1.77979 5.48279H1.78032L3.95502 5.88149L4.90767 8.04314C4.70828 8.62442 4.5996 9.24842 4.5996 9.89774C4.59968 10.6024 4.72733 11.2776 4.96152 11.9005Z" fill="#FBBB00"/>
<path d="M19.7388 8.10449C19.849 8.68522 19.9065 9.28496 19.9065 9.89789C19.9065 10.5852 19.8343 11.2556 19.6966 11.9023C19.2293 14.1029 18.0082 16.0245 16.3166 17.3843L16.3161 17.3838L13.5769 17.244L13.1892 14.824C14.3117 14.1657 15.1889 13.1355 15.651 11.9023H10.5176V8.10449H15.7258H19.7388Z" fill="#518EF8"/>
<path d="M16.3158 17.3838L16.3163 17.3843C14.6711 18.7067 12.5813 19.4979 10.3063 19.4979C6.65037 19.4979 3.47184 17.4545 1.85037 14.4474L4.96141 11.9008C5.77212 14.0644 7.85934 15.6047 10.3063 15.6047C11.358 15.6047 12.3434 15.3203 13.1889 14.824L16.3158 17.3838Z" fill="#28B446"/>
<path d="M16.4341 2.50795L13.3241 5.05405C12.449 4.50708 11.4146 4.1911 10.3064 4.1911C7.80408 4.1911 5.67783 5.80199 4.90773 8.04325L1.78034 5.4829H1.77982C3.37754 2.40246 6.59617 0.297852 10.3064 0.297852C12.6357 0.297852 14.7715 1.12758 16.4341 2.50795Z" fill="#F14336"/>
</g>
<defs>
<clipPath id="clip0">
<rect width="19.2" height="19.2" fill="white" transform="translate(0.70639 0.297852)"/>
</clipPath>
</defs>
</svg>
